<mxfile host="Electron" modified="2025-01-06T03:48:11.366Z" agent="Mozilla/5.0 (Windows NT 10.0; Win64; x64) AppleWebKit/537.36 (KHTML, like Gecko) draw.io/21.1.2 Chrome/106.0.5249.199 Electron/21.4.3 Safari/537.36" etag="DIDCUR8wektG3sxv0gCk" version="21.1.2" type="device">
  <diagram name="第 1 页" id="Cv_yd57s89qARQVj-SqK">
    <mxGraphModel dx="3232" dy="2689" grid="1" gridSize="10" guides="1" tooltips="1" connect="1" arrows="1" fold="1" page="1" pageScale="1" pageWidth="827" pageHeight="1169" math="1" shadow="0">
      <root>
        <mxCell id="0" />
        <mxCell id="1" parent="0" />
        <mxCell id="9nsqkVknTLM4fVqb4sCg-129" style="shape=connector;rounded=0;orthogonalLoop=1;jettySize=auto;html=1;labelBackgroundColor=default;strokeColor=default;strokeWidth=1;fontFamily=Helvetica;fontSize=11;fontColor=default;endArrow=blockThin;endFill=1;entryX=0;entryY=0.5;entryDx=0;entryDy=0;endSize=2;" edge="1" parent="1" source="9nsqkVknTLM4fVqb4sCg-132" target="9nsqkVknTLM4fVqb4sCg-131">
          <mxGeometry relative="1" as="geometry">
            <mxPoint x="-321" y="-535" as="targetPoint" />
          </mxGeometry>
        </mxCell>
        <mxCell id="9nsqkVknTLM4fVqb4sCg-128" value="" style="rounded=0;whiteSpace=wrap;html=1;fontFamily=Helvetica;fontSize=11;fontColor=default;" vertex="1" parent="1">
          <mxGeometry x="-402" y="-563.75" width="12" height="57" as="geometry" />
        </mxCell>
        <mxCell id="9nsqkVknTLM4fVqb4sCg-140" style="shape=connector;rounded=0;orthogonalLoop=1;jettySize=auto;html=1;entryX=0;entryY=0.5;entryDx=0;entryDy=0;labelBackgroundColor=default;strokeColor=default;strokeWidth=1;fontFamily=Helvetica;fontSize=11;fontColor=default;endArrow=blockThin;endFill=1;endSize=2;exitX=1;exitY=0.5;exitDx=0;exitDy=0;" edge="1" parent="1" source="9nsqkVknTLM4fVqb4sCg-131" target="9nsqkVknTLM4fVqb4sCg-138">
          <mxGeometry relative="1" as="geometry">
            <mxPoint x="-301" y="-533.75" as="sourcePoint" />
          </mxGeometry>
        </mxCell>
        <mxCell id="9nsqkVknTLM4fVqb4sCg-131" value="&lt;font style=&quot;font-size: 16.5px;&quot;&gt;X&lt;/font&gt;" style="ellipse;whiteSpace=wrap;html=1;aspect=fixed;fontFamily=Helvetica;fontSize=16;fontColor=default;strokeWidth=1;verticalAlign=middle;" vertex="1" parent="1">
          <mxGeometry x="-319.5" y="-543.5" width="16.5" height="16.5" as="geometry" />
        </mxCell>
        <mxCell id="9nsqkVknTLM4fVqb4sCg-133" value="" style="shape=connector;rounded=0;orthogonalLoop=1;jettySize=auto;html=1;labelBackgroundColor=default;strokeColor=default;strokeWidth=1;fontFamily=Helvetica;fontSize=11;fontColor=default;endArrow=blockThin;endFill=1;entryDx=0;entryDy=0;endSize=2;" edge="1" parent="1" source="9nsqkVknTLM4fVqb4sCg-128" target="9nsqkVknTLM4fVqb4sCg-132">
          <mxGeometry relative="1" as="geometry">
            <mxPoint x="-326" y="-535" as="targetPoint" />
            <mxPoint x="-401" y="-535" as="sourcePoint" />
          </mxGeometry>
        </mxCell>
        <mxCell id="9nsqkVknTLM4fVqb4sCg-134" style="shape=connector;rounded=0;orthogonalLoop=1;jettySize=auto;html=1;labelBackgroundColor=default;strokeColor=default;strokeWidth=1;fontFamily=Helvetica;fontSize=11;fontColor=default;endArrow=blockThin;endFill=1;endSize=2;" edge="1" parent="1" source="9nsqkVknTLM4fVqb4sCg-132" target="9nsqkVknTLM4fVqb4sCg-135">
          <mxGeometry relative="1" as="geometry">
            <mxPoint x="-331" y="-575" as="targetPoint" />
          </mxGeometry>
        </mxCell>
        <mxCell id="9nsqkVknTLM4fVqb4sCg-132" value="" style="shape=waypoint;sketch=0;fillStyle=solid;size=6;pointerEvents=1;points=[];fillColor=none;resizable=0;rotatable=0;perimeter=centerPerimeter;snapToPoint=1;fontFamily=Helvetica;fontSize=11;fontColor=default;" vertex="1" parent="1">
          <mxGeometry x="-381" y="-545" width="20" height="20" as="geometry" />
        </mxCell>
        <mxCell id="9nsqkVknTLM4fVqb4sCg-136" style="shape=connector;rounded=0;orthogonalLoop=1;jettySize=auto;html=1;labelBackgroundColor=default;strokeColor=default;strokeWidth=1;fontFamily=Helvetica;fontSize=11;fontColor=default;endArrow=blockThin;endFill=1;endSize=2;exitX=1;exitY=0.5;exitDx=0;exitDy=0;" edge="1" parent="1" source="9nsqkVknTLM4fVqb4sCg-135" target="9nsqkVknTLM4fVqb4sCg-131">
          <mxGeometry relative="1" as="geometry" />
        </mxCell>
        <mxCell id="9nsqkVknTLM4fVqb4sCg-135" value="&lt;font style=&quot;font-size: 6px;&quot;&gt;$$T-Net$$&lt;/font&gt;" style="rounded=1;whiteSpace=wrap;html=1;fontFamily=Helvetica;fontSize=11;fontColor=default;" vertex="1" parent="1">
          <mxGeometry x="-366" y="-563.75" width="30" height="15" as="geometry" />
        </mxCell>
        <mxCell id="9nsqkVknTLM4fVqb4sCg-137" value="&lt;font style=&quot;font-size: 5px;&quot; face=&quot;Times New Roman&quot;&gt;$$[B,N,3+C]$$&lt;/font&gt;" style="text;html=1;strokeColor=none;fillColor=none;align=center;verticalAlign=middle;whiteSpace=wrap;rounded=0;fontSize=11;fontFamily=Helvetica;fontColor=default;direction=west;rotation=-90;" vertex="1" parent="1">
          <mxGeometry x="-426" y="-541" width="57" height="12" as="geometry" />
        </mxCell>
        <mxCell id="9nsqkVknTLM4fVqb4sCg-138" value="" style="rounded=0;whiteSpace=wrap;html=1;fontFamily=Helvetica;fontSize=11;fontColor=default;" vertex="1" parent="1">
          <mxGeometry x="-288" y="-563.75" width="12" height="57" as="geometry" />
        </mxCell>
        <mxCell id="9nsqkVknTLM4fVqb4sCg-146" style="shape=connector;rounded=0;orthogonalLoop=1;jettySize=auto;html=1;entryX=0;entryY=0.5;entryDx=0;entryDy=0;labelBackgroundColor=default;strokeColor=default;strokeWidth=1;fontFamily=Helvetica;fontSize=11;fontColor=default;endArrow=blockThin;endFill=1;endSize=2;exitX=0.985;exitY=0.075;exitDx=0;exitDy=0;exitPerimeter=0;" edge="1" parent="1" source="9nsqkVknTLM4fVqb4sCg-138" target="9nsqkVknTLM4fVqb4sCg-141">
          <mxGeometry relative="1" as="geometry">
            <mxPoint x="-253.5" y="-564" as="sourcePoint" />
          </mxGeometry>
        </mxCell>
        <mxCell id="9nsqkVknTLM4fVqb4sCg-141" value="" style="rounded=0;whiteSpace=wrap;html=1;fontFamily=Helvetica;fontSize=11;fontColor=default;fillColor=#CCCCCC;" vertex="1" parent="1">
          <mxGeometry x="-251" y="-563.75" width="40" height="8" as="geometry" />
        </mxCell>
        <mxCell id="9nsqkVknTLM4fVqb4sCg-142" value="" style="rounded=0;whiteSpace=wrap;html=1;fontFamily=Helvetica;fontSize=11;fontColor=default;fillColor=#808080;" vertex="1" parent="1">
          <mxGeometry x="-251" y="-555.75" width="40" height="8" as="geometry" />
        </mxCell>
        <mxCell id="9nsqkVknTLM4fVqb4sCg-145" style="edgeStyle=orthogonalEdgeStyle;shape=connector;rounded=0;orthogonalLoop=1;jettySize=auto;html=1;entryX=0.5;entryY=0;entryDx=0;entryDy=0;labelBackgroundColor=default;strokeColor=default;strokeWidth=1;fontFamily=Helvetica;fontSize=11;fontColor=default;endArrow=none;endFill=0;dashed=1;" edge="1" parent="1" source="9nsqkVknTLM4fVqb4sCg-143" target="9nsqkVknTLM4fVqb4sCg-144">
          <mxGeometry relative="1" as="geometry" />
        </mxCell>
        <mxCell id="9nsqkVknTLM4fVqb4sCg-162" value="&lt;font style=&quot;font-size: 8px;&quot; face=&quot;Times New Roman&quot;&gt;weight shared&lt;/font&gt;" style="edgeLabel;html=1;align=center;verticalAlign=middle;resizable=0;points=[];fontSize=11;fontFamily=Helvetica;fontColor=default;" vertex="1" connectable="0" parent="9nsqkVknTLM4fVqb4sCg-145">
          <mxGeometry x="-0.032" relative="1" as="geometry">
            <mxPoint y="-3" as="offset" />
          </mxGeometry>
        </mxCell>
        <mxCell id="9nsqkVknTLM4fVqb4sCg-143" value="" style="rounded=0;whiteSpace=wrap;html=1;fontFamily=Helvetica;fontSize=11;fontColor=default;fillColor=#4D4D4D;" vertex="1" parent="1">
          <mxGeometry x="-251" y="-547.75" width="40" height="8" as="geometry" />
        </mxCell>
        <mxCell id="9nsqkVknTLM4fVqb4sCg-144" value="" style="rounded=0;whiteSpace=wrap;html=1;fontFamily=Helvetica;fontSize=11;fontColor=default;" vertex="1" parent="1">
          <mxGeometry x="-251" y="-514.75" width="40" height="8" as="geometry" />
        </mxCell>
        <mxCell id="9nsqkVknTLM4fVqb4sCg-149" style="shape=connector;rounded=0;orthogonalLoop=1;jettySize=auto;html=1;exitX=0.975;exitY=0.214;exitDx=0;exitDy=0;labelBackgroundColor=default;strokeColor=default;strokeWidth=1;fontFamily=Helvetica;fontSize=11;fontColor=default;endArrow=blockThin;endFill=1;endSize=2;exitPerimeter=0;entryX=0;entryY=0.5;entryDx=0;entryDy=0;" edge="1" parent="1" source="9nsqkVknTLM4fVqb4sCg-138" target="9nsqkVknTLM4fVqb4sCg-142">
          <mxGeometry relative="1" as="geometry">
            <mxPoint x="-253.5" y="-553.85" as="sourcePoint" />
            <mxPoint x="-238.5" y="-553.85" as="targetPoint" />
          </mxGeometry>
        </mxCell>
        <mxCell id="9nsqkVknTLM4fVqb4sCg-150" style="shape=connector;rounded=0;orthogonalLoop=1;jettySize=auto;html=1;exitX=0.984;exitY=0.348;exitDx=0;exitDy=0;labelBackgroundColor=default;strokeColor=default;strokeWidth=1;fontFamily=Helvetica;fontSize=11;fontColor=default;endArrow=blockThin;endFill=1;endSize=2;exitPerimeter=0;entryX=0;entryY=0.5;entryDx=0;entryDy=0;" edge="1" parent="1" source="9nsqkVknTLM4fVqb4sCg-138" target="9nsqkVknTLM4fVqb4sCg-143">
          <mxGeometry relative="1" as="geometry">
            <mxPoint x="-248.5" y="-544" as="sourcePoint" />
            <mxPoint x="-233.5" y="-544" as="targetPoint" />
          </mxGeometry>
        </mxCell>
        <mxCell id="9nsqkVknTLM4fVqb4sCg-151" style="shape=connector;rounded=0;orthogonalLoop=1;jettySize=auto;html=1;labelBackgroundColor=default;strokeColor=default;strokeWidth=1;fontFamily=Helvetica;fontSize=11;fontColor=default;endArrow=blockThin;endFill=1;endSize=2;entryX=0;entryY=0.5;entryDx=0;entryDy=0;exitX=0.984;exitY=0.924;exitDx=0;exitDy=0;exitPerimeter=0;" edge="1" parent="1" source="9nsqkVknTLM4fVqb4sCg-138" target="9nsqkVknTLM4fVqb4sCg-144">
          <mxGeometry relative="1" as="geometry">
            <mxPoint x="-271" y="-511" as="sourcePoint" />
            <mxPoint x="-233.5" y="-507" as="targetPoint" />
          </mxGeometry>
        </mxCell>
        <mxCell id="9nsqkVknTLM4fVqb4sCg-165" value="&lt;font style=&quot;font-size: 5px;&quot;&gt;$$[B,N,3+C]$$&lt;/font&gt;" style="text;html=1;strokeColor=none;fillColor=none;align=center;verticalAlign=middle;whiteSpace=wrap;rounded=0;fontSize=11;fontFamily=Helvetica;fontColor=default;direction=west;rotation=-90;" vertex="1" parent="1">
          <mxGeometry x="-312" y="-541.25" width="57" height="12" as="geometry" />
        </mxCell>
        <mxCell id="9nsqkVknTLM4fVqb4sCg-166" style="shape=connector;rounded=0;orthogonalLoop=1;jettySize=auto;html=1;labelBackgroundColor=default;strokeColor=default;strokeWidth=1;fontFamily=Helvetica;fontSize=11;fontColor=default;endArrow=blockThin;endFill=1;entryX=0;entryY=0.5;entryDx=0;entryDy=0;endSize=2;" edge="1" parent="1" source="9nsqkVknTLM4fVqb4sCg-172" target="9nsqkVknTLM4fVqb4sCg-169">
          <mxGeometry relative="1" as="geometry">
            <mxPoint x="-106" y="-534.75" as="targetPoint" />
          </mxGeometry>
        </mxCell>
        <mxCell id="9nsqkVknTLM4fVqb4sCg-167" value="" style="rounded=0;whiteSpace=wrap;html=1;fontFamily=Helvetica;fontSize=11;fontColor=default;" vertex="1" parent="1">
          <mxGeometry x="-187" y="-563.5" width="18" height="57" as="geometry" />
        </mxCell>
        <mxCell id="9nsqkVknTLM4fVqb4sCg-168" style="shape=connector;rounded=0;orthogonalLoop=1;jettySize=auto;html=1;entryX=0;entryY=0.5;entryDx=0;entryDy=0;labelBackgroundColor=default;strokeColor=default;strokeWidth=1;fontFamily=Helvetica;fontSize=11;fontColor=default;endArrow=blockThin;endFill=1;endSize=2;exitX=1;exitY=0.5;exitDx=0;exitDy=0;" edge="1" parent="1" source="9nsqkVknTLM4fVqb4sCg-169" target="9nsqkVknTLM4fVqb4sCg-176">
          <mxGeometry relative="1" as="geometry">
            <mxPoint x="-86" y="-533.5" as="sourcePoint" />
          </mxGeometry>
        </mxCell>
        <mxCell id="9nsqkVknTLM4fVqb4sCg-169" value="&lt;font style=&quot;font-size: 16.5px;&quot;&gt;X&lt;/font&gt;" style="ellipse;whiteSpace=wrap;html=1;aspect=fixed;fontFamily=Helvetica;fontSize=16;fontColor=default;strokeWidth=1;verticalAlign=middle;" vertex="1" parent="1">
          <mxGeometry x="-104.5" y="-543.25" width="16.5" height="16.5" as="geometry" />
        </mxCell>
        <mxCell id="9nsqkVknTLM4fVqb4sCg-170" value="" style="shape=connector;rounded=0;orthogonalLoop=1;jettySize=auto;html=1;labelBackgroundColor=default;strokeColor=default;strokeWidth=1;fontFamily=Helvetica;fontSize=11;fontColor=default;endArrow=blockThin;endFill=1;entryDx=0;entryDy=0;endSize=2;" edge="1" parent="1" source="9nsqkVknTLM4fVqb4sCg-167" target="9nsqkVknTLM4fVqb4sCg-172">
          <mxGeometry relative="1" as="geometry">
            <mxPoint x="-111" y="-534.75" as="targetPoint" />
            <mxPoint x="-186" y="-534.75" as="sourcePoint" />
          </mxGeometry>
        </mxCell>
        <mxCell id="9nsqkVknTLM4fVqb4sCg-171" style="shape=connector;rounded=0;orthogonalLoop=1;jettySize=auto;html=1;labelBackgroundColor=default;strokeColor=default;strokeWidth=1;fontFamily=Helvetica;fontSize=11;fontColor=default;endArrow=blockThin;endFill=1;endSize=2;" edge="1" parent="1" source="9nsqkVknTLM4fVqb4sCg-172" target="9nsqkVknTLM4fVqb4sCg-174">
          <mxGeometry relative="1" as="geometry">
            <mxPoint x="-116" y="-574.75" as="targetPoint" />
          </mxGeometry>
        </mxCell>
        <mxCell id="9nsqkVknTLM4fVqb4sCg-172" value="" style="shape=waypoint;sketch=0;fillStyle=solid;size=6;pointerEvents=1;points=[];fillColor=none;resizable=0;rotatable=0;perimeter=centerPerimeter;snapToPoint=1;fontFamily=Helvetica;fontSize=11;fontColor=default;" vertex="1" parent="1">
          <mxGeometry x="-166" y="-544.75" width="20" height="20" as="geometry" />
        </mxCell>
        <mxCell id="9nsqkVknTLM4fVqb4sCg-173" style="shape=connector;rounded=0;orthogonalLoop=1;jettySize=auto;html=1;labelBackgroundColor=default;strokeColor=default;strokeWidth=1;fontFamily=Helvetica;fontSize=11;fontColor=default;endArrow=blockThin;endFill=1;endSize=2;exitX=1;exitY=0.5;exitDx=0;exitDy=0;" edge="1" parent="1" source="9nsqkVknTLM4fVqb4sCg-174" target="9nsqkVknTLM4fVqb4sCg-169">
          <mxGeometry relative="1" as="geometry" />
        </mxCell>
        <mxCell id="9nsqkVknTLM4fVqb4sCg-174" value="&lt;font style=&quot;font-size: 6px;&quot;&gt;$$T-Net$$&lt;/font&gt;" style="rounded=1;whiteSpace=wrap;html=1;fontFamily=Helvetica;fontSize=11;fontColor=default;" vertex="1" parent="1">
          <mxGeometry x="-151" y="-563.5" width="30" height="15" as="geometry" />
        </mxCell>
        <mxCell id="9nsqkVknTLM4fVqb4sCg-175" value="&lt;font style=&quot;font-size: 5px;&quot;&gt;$$[B,N,64]$$&lt;/font&gt;" style="text;html=1;strokeColor=none;fillColor=none;align=center;verticalAlign=middle;whiteSpace=wrap;rounded=0;fontSize=11;fontFamily=Helvetica;fontColor=default;direction=west;rotation=-90;" vertex="1" parent="1">
          <mxGeometry x="-208" y="-541.25" width="57" height="12" as="geometry" />
        </mxCell>
        <mxCell id="9nsqkVknTLM4fVqb4sCg-176" value="" style="rounded=0;whiteSpace=wrap;html=1;fontFamily=Helvetica;fontSize=11;fontColor=default;" vertex="1" parent="1">
          <mxGeometry x="-73" y="-563.5" width="18" height="57" as="geometry" />
        </mxCell>
        <mxCell id="9nsqkVknTLM4fVqb4sCg-177" style="shape=connector;rounded=0;orthogonalLoop=1;jettySize=auto;html=1;entryX=0;entryY=0.5;entryDx=0;entryDy=0;labelBackgroundColor=default;strokeColor=default;strokeWidth=1;fontFamily=Helvetica;fontSize=11;fontColor=default;endArrow=blockThin;endFill=1;endSize=2;exitX=0.985;exitY=0.075;exitDx=0;exitDy=0;exitPerimeter=0;" edge="1" parent="1" source="9nsqkVknTLM4fVqb4sCg-176" target="9nsqkVknTLM4fVqb4sCg-178">
          <mxGeometry relative="1" as="geometry">
            <mxPoint x="-38.5" y="-563.75" as="sourcePoint" />
          </mxGeometry>
        </mxCell>
        <mxCell id="9nsqkVknTLM4fVqb4sCg-178" value="" style="rounded=0;whiteSpace=wrap;html=1;fontFamily=Helvetica;fontSize=11;fontColor=default;fillColor=#CCCCCC;" vertex="1" parent="1">
          <mxGeometry x="-36" y="-563.5" width="40" height="8" as="geometry" />
        </mxCell>
        <mxCell id="9nsqkVknTLM4fVqb4sCg-179" value="" style="rounded=0;whiteSpace=wrap;html=1;fontFamily=Helvetica;fontSize=11;fontColor=default;fillColor=#808080;" vertex="1" parent="1">
          <mxGeometry x="-36" y="-555.5" width="40" height="8" as="geometry" />
        </mxCell>
        <mxCell id="9nsqkVknTLM4fVqb4sCg-180" style="edgeStyle=orthogonalEdgeStyle;shape=connector;rounded=0;orthogonalLoop=1;jettySize=auto;html=1;entryX=0.5;entryY=0;entryDx=0;entryDy=0;labelBackgroundColor=default;strokeColor=default;strokeWidth=1;fontFamily=Helvetica;fontSize=11;fontColor=default;endArrow=none;endFill=0;dashed=1;" edge="1" parent="1" source="9nsqkVknTLM4fVqb4sCg-182" target="9nsqkVknTLM4fVqb4sCg-183">
          <mxGeometry relative="1" as="geometry" />
        </mxCell>
        <mxCell id="9nsqkVknTLM4fVqb4sCg-181" value="&lt;font style=&quot;font-size: 8px;&quot; face=&quot;Times New Roman&quot;&gt;weight shared&lt;/font&gt;" style="edgeLabel;html=1;align=center;verticalAlign=middle;resizable=0;points=[];fontSize=11;fontFamily=Helvetica;fontColor=default;" vertex="1" connectable="0" parent="9nsqkVknTLM4fVqb4sCg-180">
          <mxGeometry x="-0.032" relative="1" as="geometry">
            <mxPoint y="-3" as="offset" />
          </mxGeometry>
        </mxCell>
        <mxCell id="9nsqkVknTLM4fVqb4sCg-182" value="" style="rounded=0;whiteSpace=wrap;html=1;fontFamily=Helvetica;fontSize=11;fontColor=default;fillColor=#4D4D4D;" vertex="1" parent="1">
          <mxGeometry x="-36" y="-547.5" width="40" height="8" as="geometry" />
        </mxCell>
        <mxCell id="9nsqkVknTLM4fVqb4sCg-183" value="" style="rounded=0;whiteSpace=wrap;html=1;fontFamily=Helvetica;fontSize=11;fontColor=default;" vertex="1" parent="1">
          <mxGeometry x="-36" y="-514.5" width="40" height="8" as="geometry" />
        </mxCell>
        <mxCell id="9nsqkVknTLM4fVqb4sCg-184" style="shape=connector;rounded=0;orthogonalLoop=1;jettySize=auto;html=1;exitX=0.975;exitY=0.214;exitDx=0;exitDy=0;labelBackgroundColor=default;strokeColor=default;strokeWidth=1;fontFamily=Helvetica;fontSize=11;fontColor=default;endArrow=blockThin;endFill=1;endSize=2;exitPerimeter=0;entryX=0;entryY=0.5;entryDx=0;entryDy=0;" edge="1" parent="1" source="9nsqkVknTLM4fVqb4sCg-176" target="9nsqkVknTLM4fVqb4sCg-179">
          <mxGeometry relative="1" as="geometry">
            <mxPoint x="-38.5" y="-553.6" as="sourcePoint" />
            <mxPoint x="-23.5" y="-553.6" as="targetPoint" />
          </mxGeometry>
        </mxCell>
        <mxCell id="9nsqkVknTLM4fVqb4sCg-185" style="shape=connector;rounded=0;orthogonalLoop=1;jettySize=auto;html=1;exitX=0.984;exitY=0.348;exitDx=0;exitDy=0;labelBackgroundColor=default;strokeColor=default;strokeWidth=1;fontFamily=Helvetica;fontSize=11;fontColor=default;endArrow=blockThin;endFill=1;endSize=2;exitPerimeter=0;entryX=0;entryY=0.5;entryDx=0;entryDy=0;" edge="1" parent="1" source="9nsqkVknTLM4fVqb4sCg-176" target="9nsqkVknTLM4fVqb4sCg-182">
          <mxGeometry relative="1" as="geometry">
            <mxPoint x="-33.5" y="-543.75" as="sourcePoint" />
            <mxPoint x="-18.5" y="-543.75" as="targetPoint" />
          </mxGeometry>
        </mxCell>
        <mxCell id="9nsqkVknTLM4fVqb4sCg-186" style="shape=connector;rounded=0;orthogonalLoop=1;jettySize=auto;html=1;labelBackgroundColor=default;strokeColor=default;strokeWidth=1;fontFamily=Helvetica;fontSize=11;fontColor=default;endArrow=blockThin;endFill=1;endSize=2;entryX=0;entryY=0.5;entryDx=0;entryDy=0;exitX=0.984;exitY=0.924;exitDx=0;exitDy=0;exitPerimeter=0;" edge="1" parent="1" source="9nsqkVknTLM4fVqb4sCg-176" target="9nsqkVknTLM4fVqb4sCg-183">
          <mxGeometry relative="1" as="geometry">
            <mxPoint x="-56" y="-510.75" as="sourcePoint" />
            <mxPoint x="-18.5" y="-506.75" as="targetPoint" />
          </mxGeometry>
        </mxCell>
        <mxCell id="9nsqkVknTLM4fVqb4sCg-187" value="&lt;font style=&quot;font-size: 5px;&quot;&gt;$$[B,N,64]$$&lt;/font&gt;" style="text;html=1;strokeColor=none;fillColor=none;align=center;verticalAlign=middle;whiteSpace=wrap;rounded=0;fontSize=11;fontFamily=Helvetica;fontColor=default;direction=west;rotation=-90;" vertex="1" parent="1">
          <mxGeometry x="-94" y="-541" width="57" height="12" as="geometry" />
        </mxCell>
        <mxCell id="9nsqkVknTLM4fVqb4sCg-188" style="shape=connector;rounded=0;orthogonalLoop=1;jettySize=auto;html=1;labelBackgroundColor=default;strokeColor=default;strokeWidth=1;fontFamily=Helvetica;fontSize=11;fontColor=default;endArrow=blockThin;endFill=1;endSize=2;exitX=0.984;exitY=0.474;exitDx=0;exitDy=0;exitPerimeter=0;entryX=-0.014;entryY=0.064;entryDx=0;entryDy=0;entryPerimeter=0;" edge="1" parent="1" source="9nsqkVknTLM4fVqb4sCg-141" target="9nsqkVknTLM4fVqb4sCg-167">
          <mxGeometry relative="1" as="geometry">
            <mxPoint x="-211" y="-559.89" as="sourcePoint" />
            <mxPoint x="-186" y="-559.75" as="targetPoint" />
          </mxGeometry>
        </mxCell>
        <mxCell id="9nsqkVknTLM4fVqb4sCg-189" style="shape=connector;rounded=0;orthogonalLoop=1;jettySize=auto;html=1;exitX=1;exitY=0.5;exitDx=0;exitDy=0;labelBackgroundColor=default;strokeColor=default;strokeWidth=1;fontFamily=Helvetica;fontSize=11;fontColor=default;endArrow=blockThin;endFill=1;endSize=2;entryX=-0.014;entryY=0.208;entryDx=0;entryDy=0;entryPerimeter=0;" edge="1" parent="1" source="9nsqkVknTLM4fVqb4sCg-142" target="9nsqkVknTLM4fVqb4sCg-167">
          <mxGeometry relative="1" as="geometry">
            <mxPoint x="-211" y="-551.89" as="sourcePoint" />
            <mxPoint x="-186" y="-551.89" as="targetPoint" />
          </mxGeometry>
        </mxCell>
        <mxCell id="9nsqkVknTLM4fVqb4sCg-190" style="shape=connector;rounded=0;orthogonalLoop=1;jettySize=auto;html=1;exitX=1;exitY=0.5;exitDx=0;exitDy=0;labelBackgroundColor=default;strokeColor=default;strokeWidth=1;fontFamily=Helvetica;fontSize=11;fontColor=default;endArrow=blockThin;endFill=1;endSize=2;entryX=-0.005;entryY=0.35;entryDx=0;entryDy=0;entryPerimeter=0;" edge="1" parent="1" source="9nsqkVknTLM4fVqb4sCg-143" target="9nsqkVknTLM4fVqb4sCg-167">
          <mxGeometry relative="1" as="geometry">
            <mxPoint x="-211" y="-543.8199999999999" as="sourcePoint" />
            <mxPoint x="-191" y="-543.6800000000001" as="targetPoint" />
          </mxGeometry>
        </mxCell>
        <mxCell id="9nsqkVknTLM4fVqb4sCg-191" style="shape=connector;rounded=0;orthogonalLoop=1;jettySize=auto;html=1;labelBackgroundColor=default;strokeColor=default;strokeWidth=1;fontFamily=Helvetica;fontSize=11;fontColor=default;endArrow=blockThin;endFill=1;endSize=2;entryX=-0.004;entryY=0.927;entryDx=0;entryDy=0;entryPerimeter=0;" edge="1" parent="1" target="9nsqkVknTLM4fVqb4sCg-167">
          <mxGeometry relative="1" as="geometry">
            <mxPoint x="-211" y="-510.75" as="sourcePoint" />
            <mxPoint x="-191" y="-510.75" as="targetPoint" />
          </mxGeometry>
        </mxCell>
        <mxCell id="9nsqkVknTLM4fVqb4sCg-213" value="" style="rounded=0;whiteSpace=wrap;html=1;fontFamily=Helvetica;fontSize=11;fontColor=default;" vertex="1" parent="1">
          <mxGeometry x="29" y="-563.75" width="24" height="57" as="geometry" />
        </mxCell>
        <mxCell id="9nsqkVknTLM4fVqb4sCg-215" value="&lt;font style=&quot;font-size: 5px;&quot;&gt;$$[B,N,1024]$$&lt;/font&gt;" style="text;html=1;strokeColor=none;fillColor=none;align=center;verticalAlign=middle;whiteSpace=wrap;rounded=0;fontSize=11;fontFamily=Helvetica;fontColor=default;direction=west;rotation=-90;" vertex="1" parent="1">
          <mxGeometry x="12.5" y="-540.75" width="57" height="12" as="geometry" />
        </mxCell>
        <mxCell id="9nsqkVknTLM4fVqb4sCg-216" style="shape=connector;rounded=0;orthogonalLoop=1;jettySize=auto;html=1;labelBackgroundColor=default;strokeColor=default;strokeWidth=1;fontFamily=Helvetica;fontSize=11;fontColor=default;endArrow=blockThin;endFill=1;endSize=2;exitX=0.984;exitY=0.474;exitDx=0;exitDy=0;exitPerimeter=0;entryX=-0.014;entryY=0.064;entryDx=0;entryDy=0;entryPerimeter=0;" edge="1" parent="1" target="9nsqkVknTLM4fVqb4sCg-213">
          <mxGeometry relative="1" as="geometry">
            <mxPoint x="4" y="-560" as="sourcePoint" />
            <mxPoint x="30" y="-560" as="targetPoint" />
          </mxGeometry>
        </mxCell>
        <mxCell id="9nsqkVknTLM4fVqb4sCg-217" style="shape=connector;rounded=0;orthogonalLoop=1;jettySize=auto;html=1;exitX=1;exitY=0.5;exitDx=0;exitDy=0;labelBackgroundColor=default;strokeColor=default;strokeWidth=1;fontFamily=Helvetica;fontSize=11;fontColor=default;endArrow=blockThin;endFill=1;endSize=2;entryX=-0.033;entryY=0.211;entryDx=0;entryDy=0;entryPerimeter=0;" edge="1" parent="1" target="9nsqkVknTLM4fVqb4sCg-213" source="9nsqkVknTLM4fVqb4sCg-179">
          <mxGeometry relative="1" as="geometry">
            <mxPoint x="5" y="-552" as="sourcePoint" />
            <mxPoint x="30" y="-552.14" as="targetPoint" />
          </mxGeometry>
        </mxCell>
        <mxCell id="9nsqkVknTLM4fVqb4sCg-218" style="shape=connector;rounded=0;orthogonalLoop=1;jettySize=auto;html=1;exitX=1;exitY=0.5;exitDx=0;exitDy=0;labelBackgroundColor=default;strokeColor=default;strokeWidth=1;fontFamily=Helvetica;fontSize=11;fontColor=default;endArrow=blockThin;endFill=1;endSize=2;" edge="1" parent="1" source="9nsqkVknTLM4fVqb4sCg-182">
          <mxGeometry relative="1" as="geometry">
            <mxPoint x="5" y="-544" as="sourcePoint" />
            <mxPoint x="29" y="-543.75" as="targetPoint" />
          </mxGeometry>
        </mxCell>
        <mxCell id="9nsqkVknTLM4fVqb4sCg-219" style="shape=connector;rounded=0;orthogonalLoop=1;jettySize=auto;html=1;labelBackgroundColor=default;strokeColor=default;strokeWidth=1;fontFamily=Helvetica;fontSize=11;fontColor=default;endArrow=blockThin;endFill=1;endSize=2;entryX=-0.016;entryY=0.937;entryDx=0;entryDy=0;entryPerimeter=0;exitX=1;exitY=0.5;exitDx=0;exitDy=0;" edge="1" parent="1" target="9nsqkVknTLM4fVqb4sCg-213" source="9nsqkVknTLM4fVqb4sCg-183">
          <mxGeometry relative="1" as="geometry">
            <mxPoint x="5" y="-511" as="sourcePoint" />
            <mxPoint x="25" y="-511" as="targetPoint" />
          </mxGeometry>
        </mxCell>
        <mxCell id="9nsqkVknTLM4fVqb4sCg-220" value="" style="triangle;whiteSpace=wrap;html=1;fontFamily=Helvetica;fontSize=11;fontColor=default;" vertex="1" parent="1">
          <mxGeometry x="60" y="-560" width="12" height="49.5" as="geometry" />
        </mxCell>
        <mxCell id="9nsqkVknTLM4fVqb4sCg-238" style="edgeStyle=none;shape=connector;rounded=0;orthogonalLoop=1;jettySize=auto;html=1;entryX=0.5;entryY=1;entryDx=0;entryDy=0;labelBackgroundColor=default;strokeColor=default;strokeWidth=1;fontFamily=Helvetica;fontSize=11;fontColor=default;endArrow=blockThin;endFill=1;endSize=2;" edge="1" parent="1" source="9nsqkVknTLM4fVqb4sCg-228" target="9nsqkVknTLM4fVqb4sCg-232">
          <mxGeometry relative="1" as="geometry" />
        </mxCell>
        <mxCell id="9nsqkVknTLM4fVqb4sCg-228" value="" style="shape=cube;whiteSpace=wrap;html=1;boundedLbl=1;backgroundOutline=1;darkOpacity=0.05;darkOpacity2=0.1;fontFamily=Helvetica;fontSize=11;fontColor=default;direction=east;" vertex="1" parent="1">
          <mxGeometry x="-324.5" y="-200" width="30" height="60" as="geometry" />
        </mxCell>
        <mxCell id="9nsqkVknTLM4fVqb4sCg-239" style="edgeStyle=none;shape=connector;rounded=0;orthogonalLoop=1;jettySize=auto;html=1;entryX=0.5;entryY=1;entryDx=0;entryDy=0;labelBackgroundColor=default;strokeColor=default;strokeWidth=1;fontFamily=Helvetica;fontSize=11;fontColor=default;endArrow=blockThin;endFill=1;endSize=2;" edge="1" parent="1" source="9nsqkVknTLM4fVqb4sCg-231" target="9nsqkVknTLM4fVqb4sCg-236">
          <mxGeometry relative="1" as="geometry" />
        </mxCell>
        <mxCell id="9nsqkVknTLM4fVqb4sCg-231" value="" style="rounded=0;whiteSpace=wrap;html=1;fontFamily=Helvetica;fontSize=11;fontColor=default;" vertex="1" parent="1">
          <mxGeometry x="-282.5" y="-198.5" width="12" height="57" as="geometry" />
        </mxCell>
        <mxCell id="9nsqkVknTLM4fVqb4sCg-232" value="&lt;font style=&quot;font-size: 8px;&quot; face=&quot;Times New Roman&quot;&gt;BatchNorm&lt;/font&gt;" style="text;html=1;strokeColor=none;fillColor=none;align=center;verticalAlign=middle;whiteSpace=wrap;rounded=0;fontSize=11;fontFamily=Helvetica;fontColor=default;direction=west;rotation=-90;" vertex="1" parent="1">
          <mxGeometry x="-306.5" y="-176" width="57" height="12" as="geometry" />
        </mxCell>
        <mxCell id="9nsqkVknTLM4fVqb4sCg-255" style="edgeStyle=none;shape=connector;rounded=0;orthogonalLoop=1;jettySize=auto;html=1;entryX=-0.009;entryY=0.479;entryDx=0;entryDy=0;entryPerimeter=0;labelBackgroundColor=default;strokeColor=default;strokeWidth=1;fontFamily=Helvetica;fontSize=11;fontColor=default;endArrow=blockThin;endFill=1;endSize=2;" edge="1" parent="1" source="9nsqkVknTLM4fVqb4sCg-235" target="9nsqkVknTLM4fVqb4sCg-241">
          <mxGeometry relative="1" as="geometry" />
        </mxCell>
        <mxCell id="9nsqkVknTLM4fVqb4sCg-235" value="" style="rounded=0;whiteSpace=wrap;html=1;fontFamily=Helvetica;fontSize=11;fontColor=default;" vertex="1" parent="1">
          <mxGeometry x="-257" y="-198.5" width="12" height="57" as="geometry" />
        </mxCell>
        <mxCell id="9nsqkVknTLM4fVqb4sCg-236" value="&lt;font style=&quot;font-size: 8px;&quot; face=&quot;Times New Roman&quot;&gt;Relu&lt;/font&gt;" style="text;html=1;strokeColor=none;fillColor=none;align=center;verticalAlign=middle;whiteSpace=wrap;rounded=0;fontSize=11;fontFamily=Helvetica;fontColor=default;direction=west;rotation=-90;" vertex="1" parent="1">
          <mxGeometry x="-281" y="-176" width="57" height="12" as="geometry" />
        </mxCell>
        <mxCell id="9nsqkVknTLM4fVqb4sCg-240" style="edgeStyle=none;shape=connector;rounded=0;orthogonalLoop=1;jettySize=auto;html=1;entryX=0.5;entryY=1;entryDx=0;entryDy=0;labelBackgroundColor=default;strokeColor=default;strokeWidth=1;fontFamily=Helvetica;fontSize=11;fontColor=default;endArrow=blockThin;endFill=1;endSize=2;" edge="1" parent="1" source="9nsqkVknTLM4fVqb4sCg-241" target="9nsqkVknTLM4fVqb4sCg-244">
          <mxGeometry relative="1" as="geometry" />
        </mxCell>
        <mxCell id="9nsqkVknTLM4fVqb4sCg-241" value="" style="shape=cube;whiteSpace=wrap;html=1;boundedLbl=1;backgroundOutline=1;darkOpacity=0.05;darkOpacity2=0.1;fontFamily=Helvetica;fontSize=11;fontColor=default;direction=east;" vertex="1" parent="1">
          <mxGeometry x="-231" y="-198.5" width="30" height="60" as="geometry" />
        </mxCell>
        <mxCell id="9nsqkVknTLM4fVqb4sCg-242" style="edgeStyle=none;shape=connector;rounded=0;orthogonalLoop=1;jettySize=auto;html=1;entryX=0.5;entryY=1;entryDx=0;entryDy=0;labelBackgroundColor=default;strokeColor=default;strokeWidth=1;fontFamily=Helvetica;fontSize=11;fontColor=default;endArrow=blockThin;endFill=1;endSize=2;" edge="1" parent="1" source="9nsqkVknTLM4fVqb4sCg-243" target="9nsqkVknTLM4fVqb4sCg-246">
          <mxGeometry relative="1" as="geometry" />
        </mxCell>
        <mxCell id="9nsqkVknTLM4fVqb4sCg-243" value="" style="rounded=0;whiteSpace=wrap;html=1;fontFamily=Helvetica;fontSize=11;fontColor=default;" vertex="1" parent="1">
          <mxGeometry x="-189" y="-197" width="12" height="57" as="geometry" />
        </mxCell>
        <mxCell id="9nsqkVknTLM4fVqb4sCg-244" value="&lt;font style=&quot;font-size: 8px;&quot; face=&quot;Times New Roman&quot;&gt;BatchNorm&lt;/font&gt;" style="text;html=1;strokeColor=none;fillColor=none;align=center;verticalAlign=middle;whiteSpace=wrap;rounded=0;fontSize=11;fontFamily=Helvetica;fontColor=default;direction=west;rotation=-90;" vertex="1" parent="1">
          <mxGeometry x="-213" y="-174.5" width="57" height="12" as="geometry" />
        </mxCell>
        <mxCell id="9nsqkVknTLM4fVqb4sCg-256" style="edgeStyle=none;shape=connector;rounded=0;orthogonalLoop=1;jettySize=auto;html=1;labelBackgroundColor=default;strokeColor=default;strokeWidth=1;fontFamily=Helvetica;fontSize=11;fontColor=default;endArrow=blockThin;endFill=1;endSize=2;" edge="1" parent="1" source="9nsqkVknTLM4fVqb4sCg-245" target="9nsqkVknTLM4fVqb4sCg-248">
          <mxGeometry relative="1" as="geometry" />
        </mxCell>
        <mxCell id="9nsqkVknTLM4fVqb4sCg-245" value="" style="rounded=0;whiteSpace=wrap;html=1;fontFamily=Helvetica;fontSize=11;fontColor=default;" vertex="1" parent="1">
          <mxGeometry x="-163.5" y="-197" width="12" height="57" as="geometry" />
        </mxCell>
        <mxCell id="9nsqkVknTLM4fVqb4sCg-246" value="&lt;font style=&quot;font-size: 8px;&quot; face=&quot;Times New Roman&quot;&gt;Relu&lt;/font&gt;" style="text;html=1;strokeColor=none;fillColor=none;align=center;verticalAlign=middle;whiteSpace=wrap;rounded=0;fontSize=11;fontFamily=Helvetica;fontColor=default;direction=west;rotation=-90;" vertex="1" parent="1">
          <mxGeometry x="-187.5" y="-174.5" width="57" height="12" as="geometry" />
        </mxCell>
        <mxCell id="9nsqkVknTLM4fVqb4sCg-247" style="edgeStyle=none;shape=connector;rounded=0;orthogonalLoop=1;jettySize=auto;html=1;entryX=0.5;entryY=1;entryDx=0;entryDy=0;labelBackgroundColor=default;strokeColor=default;strokeWidth=1;fontFamily=Helvetica;fontSize=11;fontColor=default;endArrow=blockThin;endFill=1;endSize=2;" edge="1" parent="1" source="9nsqkVknTLM4fVqb4sCg-248" target="9nsqkVknTLM4fVqb4sCg-251">
          <mxGeometry relative="1" as="geometry" />
        </mxCell>
        <mxCell id="9nsqkVknTLM4fVqb4sCg-248" value="" style="shape=cube;whiteSpace=wrap;html=1;boundedLbl=1;backgroundOutline=1;darkOpacity=0.05;darkOpacity2=0.1;fontFamily=Helvetica;fontSize=11;fontColor=default;direction=east;" vertex="1" parent="1">
          <mxGeometry x="-135" y="-197" width="30" height="60" as="geometry" />
        </mxCell>
        <mxCell id="9nsqkVknTLM4fVqb4sCg-250" value="" style="rounded=0;whiteSpace=wrap;html=1;fontFamily=Helvetica;fontSize=11;fontColor=default;" vertex="1" parent="1">
          <mxGeometry x="-93" y="-195.5" width="12" height="57" as="geometry" />
        </mxCell>
        <mxCell id="9nsqkVknTLM4fVqb4sCg-320" style="edgeStyle=none;shape=connector;rounded=0;orthogonalLoop=1;jettySize=auto;html=1;entryX=0.5;entryY=0.921;entryDx=0;entryDy=0;labelBackgroundColor=default;strokeColor=default;strokeWidth=1;fontFamily=Helvetica;fontSize=11;fontColor=default;endArrow=blockThin;endFill=1;endSize=2;entryPerimeter=0;exitX=1;exitY=0.5;exitDx=0;exitDy=0;" edge="1" parent="1" source="9nsqkVknTLM4fVqb4sCg-250" target="9nsqkVknTLM4fVqb4sCg-319">
          <mxGeometry relative="1" as="geometry">
            <mxPoint x="-80" y="-167" as="sourcePoint" />
          </mxGeometry>
        </mxCell>
        <mxCell id="9nsqkVknTLM4fVqb4sCg-251" value="&lt;font style=&quot;font-size: 8px;&quot; face=&quot;Times New Roman&quot;&gt;BatchNorm&lt;/font&gt;" style="text;html=1;strokeColor=none;fillColor=none;align=center;verticalAlign=middle;whiteSpace=wrap;rounded=0;fontSize=11;fontFamily=Helvetica;fontColor=default;direction=west;rotation=-90;" vertex="1" parent="1">
          <mxGeometry x="-117" y="-173" width="57" height="12" as="geometry" />
        </mxCell>
        <mxCell id="9nsqkVknTLM4fVqb4sCg-257" value="conv1d" style="text;html=1;strokeColor=none;fillColor=none;align=center;verticalAlign=middle;whiteSpace=wrap;rounded=0;fontSize=6;fontFamily=Times New Roman;fontColor=default;rotation=45;" vertex="1" parent="1">
          <mxGeometry x="-342.5" y="-183.5" width="60" height="30" as="geometry" />
        </mxCell>
        <mxCell id="9nsqkVknTLM4fVqb4sCg-258" value="conv1d" style="text;html=1;strokeColor=none;fillColor=none;align=center;verticalAlign=middle;whiteSpace=wrap;rounded=0;fontSize=6;fontFamily=Times New Roman;fontColor=default;rotation=45;" vertex="1" parent="1">
          <mxGeometry x="-250.5" y="-183.5" width="60" height="30" as="geometry" />
        </mxCell>
        <mxCell id="9nsqkVknTLM4fVqb4sCg-259" value="conv1d" style="text;html=1;strokeColor=none;fillColor=none;align=center;verticalAlign=middle;whiteSpace=wrap;rounded=0;fontSize=6;fontFamily=Times New Roman;fontColor=default;rotation=45;" vertex="1" parent="1">
          <mxGeometry x="-156" y="-181.25" width="60" height="30" as="geometry" />
        </mxCell>
        <mxCell id="9nsqkVknTLM4fVqb4sCg-263" value="&lt;font style=&quot;font-size: 24px;&quot; face=&quot;Times New Roman&quot;&gt;PointNet&lt;/font&gt;" style="rounded=1;whiteSpace=wrap;html=1;fontFamily=Helvetica;fontSize=11;fontColor=default;" vertex="1" parent="1">
          <mxGeometry x="72" y="-280" width="158" height="80" as="geometry" />
        </mxCell>
        <mxCell id="9nsqkVknTLM4fVqb4sCg-313" value="&lt;font style=&quot;font-size: 6px;&quot; face=&quot;Times New Roman&quot;&gt;8x8&lt;br&gt;transform&lt;/font&gt;" style="text;html=1;strokeColor=none;fillColor=none;align=center;verticalAlign=middle;whiteSpace=wrap;rounded=0;fontSize=11;fontFamily=Helvetica;fontColor=default;" vertex="1" parent="1">
          <mxGeometry x="-343" y="-514.75" width="36.25" height="20" as="geometry" />
        </mxCell>
        <mxCell id="9nsqkVknTLM4fVqb4sCg-314" value="&lt;font style=&quot;font-size: 8px;&quot; face=&quot;Times New Roman&quot;&gt;mlp(64,64)&lt;/font&gt;" style="text;html=1;strokeColor=none;fillColor=none;align=center;verticalAlign=middle;whiteSpace=wrap;rounded=0;fontSize=11;fontFamily=Helvetica;fontColor=default;" vertex="1" parent="1">
          <mxGeometry x="-249" y="-580" width="36" height="16.25" as="geometry" />
        </mxCell>
        <mxCell id="9nsqkVknTLM4fVqb4sCg-315" value="&lt;font style=&quot;font-size: 8px;&quot; face=&quot;Times New Roman&quot;&gt;mlp(64,128,1024)&lt;/font&gt;" style="text;html=1;strokeColor=none;fillColor=none;align=center;verticalAlign=middle;whiteSpace=wrap;rounded=0;fontSize=11;fontFamily=Helvetica;fontColor=default;" vertex="1" parent="1">
          <mxGeometry x="-47.5" y="-580" width="60" height="16.25" as="geometry" />
        </mxCell>
        <mxCell id="9nsqkVknTLM4fVqb4sCg-316" value="max pool" style="text;html=1;strokeColor=none;fillColor=none;align=center;verticalAlign=middle;whiteSpace=wrap;rounded=0;fontSize=8;fontFamily=Times New Roman;fontColor=default;" vertex="1" parent="1">
          <mxGeometry x="53" y="-569.75" width="60" height="30" as="geometry" />
        </mxCell>
        <mxCell id="9nsqkVknTLM4fVqb4sCg-317" value="" style="rounded=0;whiteSpace=wrap;html=1;fontFamily=Helvetica;fontSize=11;fontColor=default;" vertex="1" parent="1">
          <mxGeometry x="94" y="-547.5" width="90" height="17" as="geometry" />
        </mxCell>
        <mxCell id="9nsqkVknTLM4fVqb4sCg-318" value="" style="rounded=0;whiteSpace=wrap;html=1;fontFamily=Helvetica;fontSize=11;fontColor=default;" vertex="1" parent="1">
          <mxGeometry x="-69" y="-195.5" width="12" height="57" as="geometry" />
        </mxCell>
        <mxCell id="9nsqkVknTLM4fVqb4sCg-319" value="&lt;font style=&quot;font-size: 8px;&quot; face=&quot;Times New Roman&quot;&gt;Relu&lt;/font&gt;" style="text;html=1;strokeColor=none;fillColor=none;align=center;verticalAlign=middle;whiteSpace=wrap;rounded=0;fontSize=11;fontFamily=Helvetica;fontColor=default;direction=west;rotation=-90;" vertex="1" parent="1">
          <mxGeometry x="-93" y="-173" width="57" height="12" as="geometry" />
        </mxCell>
        <mxCell id="9nsqkVknTLM4fVqb4sCg-538" style="shape=connector;rounded=0;orthogonalLoop=1;jettySize=auto;html=1;entryX=0;entryY=0.5;entryDx=0;entryDy=0;labelBackgroundColor=default;strokeColor=default;strokeWidth=1;fontFamily=Helvetica;fontSize=11;fontColor=default;endArrow=blockThin;endFill=1;endSize=2;exitX=0.985;exitY=0.075;exitDx=0;exitDy=0;exitPerimeter=0;" edge="1" parent="1" target="9nsqkVknTLM4fVqb4sCg-539">
          <mxGeometry relative="1" as="geometry">
            <mxPoint x="-601.75" y="-419" as="sourcePoint" />
          </mxGeometry>
        </mxCell>
        <mxCell id="9nsqkVknTLM4fVqb4sCg-539" value="" style="rounded=0;whiteSpace=wrap;html=1;fontFamily=Helvetica;fontSize=11;fontColor=default;fillColor=#CCCCCC;" vertex="1" parent="1">
          <mxGeometry x="-582.75" y="-423.5" width="40" height="8" as="geometry" />
        </mxCell>
        <mxCell id="9nsqkVknTLM4fVqb4sCg-540" value="" style="rounded=0;whiteSpace=wrap;html=1;fontFamily=Helvetica;fontSize=11;fontColor=default;fillColor=#808080;" vertex="1" parent="1">
          <mxGeometry x="-582.75" y="-415.5" width="40" height="8" as="geometry" />
        </mxCell>
        <mxCell id="9nsqkVknTLM4fVqb4sCg-541" style="edgeStyle=orthogonalEdgeStyle;shape=connector;rounded=0;orthogonalLoop=1;jettySize=auto;html=1;entryX=0.5;entryY=0;entryDx=0;entryDy=0;labelBackgroundColor=default;strokeColor=default;strokeWidth=1;fontFamily=Helvetica;fontSize=11;fontColor=default;endArrow=none;endFill=0;dashed=1;" edge="1" parent="1" source="9nsqkVknTLM4fVqb4sCg-543" target="9nsqkVknTLM4fVqb4sCg-544">
          <mxGeometry relative="1" as="geometry" />
        </mxCell>
        <mxCell id="9nsqkVknTLM4fVqb4sCg-542" value="&lt;font style=&quot;font-size: 8px;&quot; face=&quot;Times New Roman&quot;&gt;weight shared&lt;/font&gt;" style="edgeLabel;html=1;align=center;verticalAlign=middle;resizable=0;points=[];fontSize=11;fontFamily=Helvetica;fontColor=default;" vertex="1" connectable="0" parent="9nsqkVknTLM4fVqb4sCg-541">
          <mxGeometry x="-0.032" relative="1" as="geometry">
            <mxPoint y="-3" as="offset" />
          </mxGeometry>
        </mxCell>
        <mxCell id="9nsqkVknTLM4fVqb4sCg-543" value="" style="rounded=0;whiteSpace=wrap;html=1;fontFamily=Helvetica;fontSize=11;fontColor=default;fillColor=#4D4D4D;" vertex="1" parent="1">
          <mxGeometry x="-582.75" y="-407.5" width="40" height="8" as="geometry" />
        </mxCell>
        <mxCell id="9nsqkVknTLM4fVqb4sCg-544" value="" style="rounded=0;whiteSpace=wrap;html=1;fontFamily=Helvetica;fontSize=11;fontColor=default;" vertex="1" parent="1">
          <mxGeometry x="-582.75" y="-374.5" width="40" height="8" as="geometry" />
        </mxCell>
        <mxCell id="9nsqkVknTLM4fVqb4sCg-545" style="shape=connector;rounded=0;orthogonalLoop=1;jettySize=auto;html=1;exitX=0.975;exitY=0.214;exitDx=0;exitDy=0;labelBackgroundColor=default;strokeColor=default;strokeWidth=1;fontFamily=Helvetica;fontSize=11;fontColor=default;endArrow=blockThin;endFill=1;endSize=2;exitPerimeter=0;entryX=0;entryY=0.5;entryDx=0;entryDy=0;" edge="1" parent="1" target="9nsqkVknTLM4fVqb4sCg-540">
          <mxGeometry relative="1" as="geometry">
            <mxPoint x="-601.75" y="-411" as="sourcePoint" />
            <mxPoint x="-570.25" y="-413.6" as="targetPoint" />
          </mxGeometry>
        </mxCell>
        <mxCell id="9nsqkVknTLM4fVqb4sCg-546" style="shape=connector;rounded=0;orthogonalLoop=1;jettySize=auto;html=1;exitX=0.984;exitY=0.348;exitDx=0;exitDy=0;labelBackgroundColor=default;strokeColor=default;strokeWidth=1;fontFamily=Helvetica;fontSize=11;fontColor=default;endArrow=blockThin;endFill=1;endSize=2;exitPerimeter=0;entryX=0;entryY=0.5;entryDx=0;entryDy=0;" edge="1" parent="1" target="9nsqkVknTLM4fVqb4sCg-543">
          <mxGeometry relative="1" as="geometry">
            <mxPoint x="-601.75" y="-404" as="sourcePoint" />
            <mxPoint x="-565.25" y="-403.75" as="targetPoint" />
          </mxGeometry>
        </mxCell>
        <mxCell id="9nsqkVknTLM4fVqb4sCg-547" style="shape=connector;rounded=0;orthogonalLoop=1;jettySize=auto;html=1;labelBackgroundColor=default;strokeColor=default;strokeWidth=1;fontFamily=Helvetica;fontSize=11;fontColor=default;endArrow=blockThin;endFill=1;endSize=2;entryX=0;entryY=0.5;entryDx=0;entryDy=0;exitX=0.984;exitY=0.924;exitDx=0;exitDy=0;exitPerimeter=0;" edge="1" parent="1" target="9nsqkVknTLM4fVqb4sCg-544">
          <mxGeometry relative="1" as="geometry">
            <mxPoint x="-601.75" y="-371" as="sourcePoint" />
            <mxPoint x="-565.25" y="-366.75" as="targetPoint" />
          </mxGeometry>
        </mxCell>
        <mxCell id="9nsqkVknTLM4fVqb4sCg-548" style="shape=connector;rounded=0;orthogonalLoop=1;jettySize=auto;html=1;labelBackgroundColor=default;strokeColor=default;strokeWidth=1;fontFamily=Helvetica;fontSize=11;fontColor=default;endArrow=blockThin;endFill=1;endSize=2;exitX=0.984;exitY=0.474;exitDx=0;exitDy=0;exitPerimeter=0;entryX=-0.014;entryY=0.064;entryDx=0;entryDy=0;entryPerimeter=0;" edge="1" parent="1">
          <mxGeometry relative="1" as="geometry">
            <mxPoint x="-542.75" y="-420" as="sourcePoint" />
            <mxPoint x="-517.75" y="-420" as="targetPoint" />
          </mxGeometry>
        </mxCell>
        <mxCell id="9nsqkVknTLM4fVqb4sCg-549" style="shape=connector;rounded=0;orthogonalLoop=1;jettySize=auto;html=1;exitX=1;exitY=0.5;exitDx=0;exitDy=0;labelBackgroundColor=default;strokeColor=default;strokeWidth=1;fontFamily=Helvetica;fontSize=11;fontColor=default;endArrow=blockThin;endFill=1;endSize=2;entryX=-0.033;entryY=0.211;entryDx=0;entryDy=0;entryPerimeter=0;" edge="1" parent="1" source="9nsqkVknTLM4fVqb4sCg-540">
          <mxGeometry relative="1" as="geometry">
            <mxPoint x="-541.75" y="-412" as="sourcePoint" />
            <mxPoint x="-518.75" y="-412" as="targetPoint" />
          </mxGeometry>
        </mxCell>
        <mxCell id="9nsqkVknTLM4fVqb4sCg-550" style="shape=connector;rounded=0;orthogonalLoop=1;jettySize=auto;html=1;exitX=1;exitY=0.5;exitDx=0;exitDy=0;labelBackgroundColor=default;strokeColor=default;strokeWidth=1;fontFamily=Helvetica;fontSize=11;fontColor=default;endArrow=blockThin;endFill=1;endSize=2;" edge="1" parent="1" source="9nsqkVknTLM4fVqb4sCg-543">
          <mxGeometry relative="1" as="geometry">
            <mxPoint x="-541.75" y="-404" as="sourcePoint" />
            <mxPoint x="-517.75" y="-403.75" as="targetPoint" />
          </mxGeometry>
        </mxCell>
        <mxCell id="9nsqkVknTLM4fVqb4sCg-551" style="shape=connector;rounded=0;orthogonalLoop=1;jettySize=auto;html=1;labelBackgroundColor=default;strokeColor=default;strokeWidth=1;fontFamily=Helvetica;fontSize=11;fontColor=default;endArrow=blockThin;endFill=1;endSize=2;entryX=-0.016;entryY=0.937;entryDx=0;entryDy=0;entryPerimeter=0;exitX=1;exitY=0.5;exitDx=0;exitDy=0;" edge="1" parent="1" source="9nsqkVknTLM4fVqb4sCg-544">
          <mxGeometry relative="1" as="geometry">
            <mxPoint x="-541.75" y="-371" as="sourcePoint" />
            <mxPoint x="-517.75" y="-370" as="targetPoint" />
          </mxGeometry>
        </mxCell>
        <mxCell id="9nsqkVknTLM4fVqb4sCg-552" value="&lt;font style=&quot;font-size: 8px;&quot; face=&quot;Times New Roman&quot;&gt;mlp(64,128,1024)&lt;/font&gt;" style="text;html=1;strokeColor=none;fillColor=none;align=center;verticalAlign=middle;whiteSpace=wrap;rounded=0;fontSize=11;fontFamily=Helvetica;fontColor=default;" vertex="1" parent="1">
          <mxGeometry x="-594.25" y="-440" width="60" height="16.25" as="geometry" />
        </mxCell>
        <mxCell id="9nsqkVknTLM4fVqb4sCg-558" value="" style="shape=table;startSize=0;container=1;collapsible=0;childLayout=tableLayout;fontFamily=Helvetica;fontSize=11;fontColor=default;fillColor=#FFFFFF;" vertex="1" parent="1">
          <mxGeometry x="-447" y="-334" width="34" height="170" as="geometry" />
        </mxCell>
        <mxCell id="9nsqkVknTLM4fVqb4sCg-559" value="" style="shape=tableRow;horizontal=0;startSize=0;swimlaneHead=0;swimlaneBody=0;strokeColor=inherit;top=0;left=0;bottom=0;right=0;collapsible=0;dropTarget=0;fillColor=none;points=[[0,0.5],[1,0.5]];portConstraint=eastwest;fontFamily=Helvetica;fontSize=11;fontColor=default;" vertex="1" parent="9nsqkVknTLM4fVqb4sCg-558">
          <mxGeometry width="34" height="34" as="geometry" />
        </mxCell>
        <mxCell id="9nsqkVknTLM4fVqb4sCg-560" value="" style="shape=partialRectangle;html=1;whiteSpace=wrap;connectable=0;strokeColor=inherit;overflow=hidden;fillColor=#E6E6E6;top=0;left=0;bottom=0;right=0;pointerEvents=1;fontFamily=Helvetica;fontSize=11;fontColor=default;" vertex="1" parent="9nsqkVknTLM4fVqb4sCg-559">
          <mxGeometry width="34" height="34" as="geometry">
            <mxRectangle width="34" height="34" as="alternateBounds" />
          </mxGeometry>
        </mxCell>
        <mxCell id="9nsqkVknTLM4fVqb4sCg-561" value="" style="shape=tableRow;horizontal=0;startSize=0;swimlaneHead=0;swimlaneBody=0;strokeColor=inherit;top=0;left=0;bottom=0;right=0;collapsible=0;dropTarget=0;fillColor=none;points=[[0,0.5],[1,0.5]];portConstraint=eastwest;fontFamily=Helvetica;fontSize=11;fontColor=default;" vertex="1" parent="9nsqkVknTLM4fVqb4sCg-558">
          <mxGeometry y="34" width="34" height="34" as="geometry" />
        </mxCell>
        <mxCell id="9nsqkVknTLM4fVqb4sCg-562" value="" style="shape=partialRectangle;html=1;whiteSpace=wrap;connectable=0;strokeColor=inherit;overflow=hidden;fillColor=#CCCCCC;top=0;left=0;bottom=0;right=0;pointerEvents=1;fontFamily=Helvetica;fontSize=11;fontColor=default;" vertex="1" parent="9nsqkVknTLM4fVqb4sCg-561">
          <mxGeometry width="34" height="34" as="geometry">
            <mxRectangle width="34" height="34" as="alternateBounds" />
          </mxGeometry>
        </mxCell>
        <mxCell id="9nsqkVknTLM4fVqb4sCg-563" value="" style="shape=tableRow;horizontal=0;startSize=0;swimlaneHead=0;swimlaneBody=0;strokeColor=inherit;top=0;left=0;bottom=0;right=0;collapsible=0;dropTarget=0;fillColor=none;points=[[0,0.5],[1,0.5]];portConstraint=eastwest;fontFamily=Helvetica;fontSize=11;fontColor=default;" vertex="1" parent="9nsqkVknTLM4fVqb4sCg-558">
          <mxGeometry y="68" width="34" height="34" as="geometry" />
        </mxCell>
        <mxCell id="9nsqkVknTLM4fVqb4sCg-564" value="" style="shape=partialRectangle;html=1;whiteSpace=wrap;connectable=0;strokeColor=inherit;overflow=hidden;fillColor=#808080;top=0;left=0;bottom=0;right=0;pointerEvents=1;fontFamily=Helvetica;fontSize=11;fontColor=default;" vertex="1" parent="9nsqkVknTLM4fVqb4sCg-563">
          <mxGeometry width="34" height="34" as="geometry">
            <mxRectangle width="34" height="34" as="alternateBounds" />
          </mxGeometry>
        </mxCell>
        <mxCell id="9nsqkVknTLM4fVqb4sCg-565" value="" style="shape=tableRow;horizontal=0;startSize=0;swimlaneHead=0;swimlaneBody=0;strokeColor=inherit;top=0;left=0;bottom=0;right=0;collapsible=0;dropTarget=0;fillColor=none;points=[[0,0.5],[1,0.5]];portConstraint=eastwest;fontFamily=Helvetica;fontSize=11;fontColor=default;" vertex="1" parent="9nsqkVknTLM4fVqb4sCg-558">
          <mxGeometry y="102" width="34" height="34" as="geometry" />
        </mxCell>
        <mxCell id="9nsqkVknTLM4fVqb4sCg-566" value="" style="shape=partialRectangle;html=1;whiteSpace=wrap;connectable=0;strokeColor=inherit;overflow=hidden;fillColor=#666666;top=0;left=0;bottom=0;right=0;pointerEvents=1;fontFamily=Helvetica;fontSize=11;fontColor=default;" vertex="1" parent="9nsqkVknTLM4fVqb4sCg-565">
          <mxGeometry width="34" height="34" as="geometry">
            <mxRectangle width="34" height="34" as="alternateBounds" />
          </mxGeometry>
        </mxCell>
        <mxCell id="9nsqkVknTLM4fVqb4sCg-567" value="" style="shape=tableRow;horizontal=0;startSize=0;swimlaneHead=0;swimlaneBody=0;strokeColor=inherit;top=0;left=0;bottom=0;right=0;collapsible=0;dropTarget=0;fillColor=none;points=[[0,0.5],[1,0.5]];portConstraint=eastwest;fontFamily=Helvetica;fontSize=11;fontColor=default;" vertex="1" parent="9nsqkVknTLM4fVqb4sCg-558">
          <mxGeometry y="136" width="34" height="34" as="geometry" />
        </mxCell>
        <mxCell id="9nsqkVknTLM4fVqb4sCg-568" value="" style="shape=partialRectangle;html=1;whiteSpace=wrap;connectable=0;strokeColor=inherit;overflow=hidden;fillColor=#4D4D4D;top=0;left=0;bottom=0;right=0;pointerEvents=1;fontFamily=Helvetica;fontSize=11;fontColor=default;" vertex="1" parent="9nsqkVknTLM4fVqb4sCg-567">
          <mxGeometry width="34" height="34" as="geometry">
            <mxRectangle width="34" height="34" as="alternateBounds" />
          </mxGeometry>
        </mxCell>
        <mxCell id="9nsqkVknTLM4fVqb4sCg-599" value="" style="shape=table;startSize=0;container=1;collapsible=0;childLayout=tableLayout;fontFamily=Helvetica;fontSize=11;fontColor=default;fillColor=#FFFFFF;flipV=1;flipH=1;direction=north;" vertex="1" parent="1">
          <mxGeometry x="370" y="-240" width="34" height="170" as="geometry" />
        </mxCell>
        <mxCell id="9nsqkVknTLM4fVqb4sCg-608" value="" style="shape=tableRow;horizontal=0;startSize=0;swimlaneHead=0;swimlaneBody=0;strokeColor=inherit;top=0;left=0;bottom=0;right=0;collapsible=0;dropTarget=0;fillColor=none;points=[[0,0.5],[1,0.5]];portConstraint=eastwest;fontFamily=Helvetica;fontSize=11;fontColor=default;" vertex="1" parent="9nsqkVknTLM4fVqb4sCg-599">
          <mxGeometry width="34" height="34" as="geometry" />
        </mxCell>
        <mxCell id="9nsqkVknTLM4fVqb4sCg-609" value="" style="shape=partialRectangle;html=1;whiteSpace=wrap;connectable=0;strokeColor=inherit;overflow=hidden;fillColor=#4D4D4D;top=0;left=0;bottom=0;right=0;pointerEvents=1;fontFamily=Helvetica;fontSize=11;fontColor=default;" vertex="1" parent="9nsqkVknTLM4fVqb4sCg-608">
          <mxGeometry width="34" height="34" as="geometry">
            <mxRectangle width="34" height="34" as="alternateBounds" />
          </mxGeometry>
        </mxCell>
        <mxCell id="9nsqkVknTLM4fVqb4sCg-606" value="" style="shape=tableRow;horizontal=0;startSize=0;swimlaneHead=0;swimlaneBody=0;strokeColor=inherit;top=0;left=0;bottom=0;right=0;collapsible=0;dropTarget=0;fillColor=none;points=[[0,0.5],[1,0.5]];portConstraint=eastwest;fontFamily=Helvetica;fontSize=11;fontColor=default;" vertex="1" parent="9nsqkVknTLM4fVqb4sCg-599">
          <mxGeometry y="34" width="34" height="34" as="geometry" />
        </mxCell>
        <mxCell id="9nsqkVknTLM4fVqb4sCg-607" value="" style="shape=partialRectangle;html=1;whiteSpace=wrap;connectable=0;strokeColor=inherit;overflow=hidden;fillColor=#666666;top=0;left=0;bottom=0;right=0;pointerEvents=1;fontFamily=Helvetica;fontSize=11;fontColor=default;" vertex="1" parent="9nsqkVknTLM4fVqb4sCg-606">
          <mxGeometry width="34" height="34" as="geometry">
            <mxRectangle width="34" height="34" as="alternateBounds" />
          </mxGeometry>
        </mxCell>
        <mxCell id="9nsqkVknTLM4fVqb4sCg-604" value="" style="shape=tableRow;horizontal=0;startSize=0;swimlaneHead=0;swimlaneBody=0;strokeColor=inherit;top=0;left=0;bottom=0;right=0;collapsible=0;dropTarget=0;fillColor=none;points=[[0,0.5],[1,0.5]];portConstraint=eastwest;fontFamily=Helvetica;fontSize=11;fontColor=default;" vertex="1" parent="9nsqkVknTLM4fVqb4sCg-599">
          <mxGeometry y="68" width="34" height="34" as="geometry" />
        </mxCell>
        <mxCell id="9nsqkVknTLM4fVqb4sCg-605" value="" style="shape=partialRectangle;html=1;whiteSpace=wrap;connectable=0;strokeColor=inherit;overflow=hidden;fillColor=#808080;top=0;left=0;bottom=0;right=0;pointerEvents=1;fontFamily=Helvetica;fontSize=11;fontColor=default;" vertex="1" parent="9nsqkVknTLM4fVqb4sCg-604">
          <mxGeometry width="34" height="34" as="geometry">
            <mxRectangle width="34" height="34" as="alternateBounds" />
          </mxGeometry>
        </mxCell>
        <mxCell id="9nsqkVknTLM4fVqb4sCg-602" value="" style="shape=tableRow;horizontal=0;startSize=0;swimlaneHead=0;swimlaneBody=0;strokeColor=inherit;top=0;left=0;bottom=0;right=0;collapsible=0;dropTarget=0;fillColor=none;points=[[0,0.5],[1,0.5]];portConstraint=eastwest;fontFamily=Helvetica;fontSize=11;fontColor=default;" vertex="1" parent="9nsqkVknTLM4fVqb4sCg-599">
          <mxGeometry y="102" width="34" height="34" as="geometry" />
        </mxCell>
        <mxCell id="9nsqkVknTLM4fVqb4sCg-603" value="" style="shape=partialRectangle;html=1;whiteSpace=wrap;connectable=0;strokeColor=inherit;overflow=hidden;fillColor=#CCCCCC;top=0;left=0;bottom=0;right=0;pointerEvents=1;fontFamily=Helvetica;fontSize=11;fontColor=default;" vertex="1" parent="9nsqkVknTLM4fVqb4sCg-602">
          <mxGeometry width="34" height="34" as="geometry">
            <mxRectangle width="34" height="34" as="alternateBounds" />
          </mxGeometry>
        </mxCell>
        <mxCell id="9nsqkVknTLM4fVqb4sCg-600" value="" style="shape=tableRow;horizontal=0;startSize=0;swimlaneHead=0;swimlaneBody=0;strokeColor=inherit;top=0;left=0;bottom=0;right=0;collapsible=0;dropTarget=0;fillColor=none;points=[[0,0.5],[1,0.5]];portConstraint=eastwest;fontFamily=Helvetica;fontSize=11;fontColor=default;" vertex="1" parent="9nsqkVknTLM4fVqb4sCg-599">
          <mxGeometry y="136" width="34" height="34" as="geometry" />
        </mxCell>
        <mxCell id="9nsqkVknTLM4fVqb4sCg-601" value="" style="shape=partialRectangle;html=1;whiteSpace=wrap;connectable=0;strokeColor=inherit;overflow=hidden;fillColor=#E6E6E6;top=0;left=0;bottom=0;right=0;pointerEvents=1;fontFamily=Helvetica;fontSize=11;fontColor=default;" vertex="1" parent="9nsqkVknTLM4fVqb4sCg-600">
          <mxGeometry width="34" height="34" as="geometry">
            <mxRectangle width="34" height="34" as="alternateBounds" />
          </mxGeometry>
        </mxCell>
        <mxCell id="9nsqkVknTLM4fVqb4sCg-610" value="" style="shape=table;startSize=0;container=1;collapsible=0;childLayout=tableLayout;fontFamily=Helvetica;fontSize=11;fontColor=default;fillColor=#FFFFFF;" vertex="1" parent="1">
          <mxGeometry x="596" y="-99.62" width="20" height="100" as="geometry" />
        </mxCell>
        <mxCell id="9nsqkVknTLM4fVqb4sCg-611" value="" style="shape=tableRow;horizontal=0;startSize=0;swimlaneHead=0;swimlaneBody=0;strokeColor=inherit;top=0;left=0;bottom=0;right=0;collapsible=0;dropTarget=0;fillColor=none;points=[[0,0.5],[1,0.5]];portConstraint=eastwest;fontFamily=Helvetica;fontSize=11;fontColor=default;" vertex="1" parent="9nsqkVknTLM4fVqb4sCg-610">
          <mxGeometry width="20" height="20" as="geometry" />
        </mxCell>
        <mxCell id="9nsqkVknTLM4fVqb4sCg-612" value="" style="shape=partialRectangle;html=1;whiteSpace=wrap;connectable=0;strokeColor=inherit;overflow=hidden;fillColor=#E6E6E6;top=0;left=0;bottom=0;right=0;pointerEvents=1;fontFamily=Helvetica;fontSize=11;fontColor=default;" vertex="1" parent="9nsqkVknTLM4fVqb4sCg-611">
          <mxGeometry width="20" height="20" as="geometry">
            <mxRectangle width="20" height="20" as="alternateBounds" />
          </mxGeometry>
        </mxCell>
        <mxCell id="9nsqkVknTLM4fVqb4sCg-613" value="" style="shape=tableRow;horizontal=0;startSize=0;swimlaneHead=0;swimlaneBody=0;strokeColor=inherit;top=0;left=0;bottom=0;right=0;collapsible=0;dropTarget=0;fillColor=none;points=[[0,0.5],[1,0.5]];portConstraint=eastwest;fontFamily=Helvetica;fontSize=11;fontColor=default;" vertex="1" parent="9nsqkVknTLM4fVqb4sCg-610">
          <mxGeometry y="20" width="20" height="20" as="geometry" />
        </mxCell>
        <mxCell id="9nsqkVknTLM4fVqb4sCg-614" value="" style="shape=partialRectangle;html=1;whiteSpace=wrap;connectable=0;strokeColor=inherit;overflow=hidden;fillColor=#CCCCCC;top=0;left=0;bottom=0;right=0;pointerEvents=1;fontFamily=Helvetica;fontSize=11;fontColor=default;" vertex="1" parent="9nsqkVknTLM4fVqb4sCg-613">
          <mxGeometry width="20" height="20" as="geometry">
            <mxRectangle width="20" height="20" as="alternateBounds" />
          </mxGeometry>
        </mxCell>
        <mxCell id="9nsqkVknTLM4fVqb4sCg-615" value="" style="shape=tableRow;horizontal=0;startSize=0;swimlaneHead=0;swimlaneBody=0;strokeColor=inherit;top=0;left=0;bottom=0;right=0;collapsible=0;dropTarget=0;fillColor=none;points=[[0,0.5],[1,0.5]];portConstraint=eastwest;fontFamily=Helvetica;fontSize=11;fontColor=default;" vertex="1" parent="9nsqkVknTLM4fVqb4sCg-610">
          <mxGeometry y="40" width="20" height="20" as="geometry" />
        </mxCell>
        <mxCell id="9nsqkVknTLM4fVqb4sCg-616" value="" style="shape=partialRectangle;html=1;whiteSpace=wrap;connectable=0;strokeColor=inherit;overflow=hidden;fillColor=#808080;top=0;left=0;bottom=0;right=0;pointerEvents=1;fontFamily=Helvetica;fontSize=11;fontColor=default;" vertex="1" parent="9nsqkVknTLM4fVqb4sCg-615">
          <mxGeometry width="20" height="20" as="geometry">
            <mxRectangle width="20" height="20" as="alternateBounds" />
          </mxGeometry>
        </mxCell>
        <mxCell id="9nsqkVknTLM4fVqb4sCg-617" value="" style="shape=tableRow;horizontal=0;startSize=0;swimlaneHead=0;swimlaneBody=0;strokeColor=inherit;top=0;left=0;bottom=0;right=0;collapsible=0;dropTarget=0;fillColor=none;points=[[0,0.5],[1,0.5]];portConstraint=eastwest;fontFamily=Helvetica;fontSize=11;fontColor=default;" vertex="1" parent="9nsqkVknTLM4fVqb4sCg-610">
          <mxGeometry y="60" width="20" height="20" as="geometry" />
        </mxCell>
        <mxCell id="9nsqkVknTLM4fVqb4sCg-618" value="" style="shape=partialRectangle;html=1;whiteSpace=wrap;connectable=0;strokeColor=inherit;overflow=hidden;fillColor=#666666;top=0;left=0;bottom=0;right=0;pointerEvents=1;fontFamily=Helvetica;fontSize=11;fontColor=default;" vertex="1" parent="9nsqkVknTLM4fVqb4sCg-617">
          <mxGeometry width="20" height="20" as="geometry">
            <mxRectangle width="20" height="20" as="alternateBounds" />
          </mxGeometry>
        </mxCell>
        <mxCell id="9nsqkVknTLM4fVqb4sCg-619" value="" style="shape=tableRow;horizontal=0;startSize=0;swimlaneHead=0;swimlaneBody=0;strokeColor=inherit;top=0;left=0;bottom=0;right=0;collapsible=0;dropTarget=0;fillColor=none;points=[[0,0.5],[1,0.5]];portConstraint=eastwest;fontFamily=Helvetica;fontSize=11;fontColor=default;" vertex="1" parent="9nsqkVknTLM4fVqb4sCg-610">
          <mxGeometry y="80" width="20" height="20" as="geometry" />
        </mxCell>
        <mxCell id="9nsqkVknTLM4fVqb4sCg-620" value="" style="shape=partialRectangle;html=1;whiteSpace=wrap;connectable=0;strokeColor=inherit;overflow=hidden;fillColor=#4D4D4D;top=0;left=0;bottom=0;right=0;pointerEvents=1;fontFamily=Helvetica;fontSize=11;fontColor=default;" vertex="1" parent="9nsqkVknTLM4fVqb4sCg-619">
          <mxGeometry width="20" height="20" as="geometry">
            <mxRectangle width="20" height="20" as="alternateBounds" />
          </mxGeometry>
        </mxCell>
        <mxCell id="9nsqkVknTLM4fVqb4sCg-621" value="&lt;font style=&quot;font-size: 24px;&quot;&gt;X&lt;/font&gt;" style="ellipse;whiteSpace=wrap;html=1;aspect=fixed;fontFamily=Helvetica;fontSize=16;fontColor=default;strokeWidth=1;verticalAlign=middle;" vertex="1" parent="1">
          <mxGeometry x="634.0699999999999" y="-61.99000000000001" width="25.87" height="25.87" as="geometry" />
        </mxCell>
        <mxCell id="9nsqkVknTLM4fVqb4sCg-622" value="" style="shape=table;startSize=0;container=1;collapsible=0;childLayout=tableLayout;fontFamily=Helvetica;fontSize=11;fontColor=default;fillColor=#FFFFFF;flipV=1;flipH=1;direction=north;" vertex="1" parent="1">
          <mxGeometry x="679" y="-101.12" width="20" height="100" as="geometry" />
        </mxCell>
        <mxCell id="9nsqkVknTLM4fVqb4sCg-623" value="" style="shape=tableRow;horizontal=0;startSize=0;swimlaneHead=0;swimlaneBody=0;strokeColor=inherit;top=0;left=0;bottom=0;right=0;collapsible=0;dropTarget=0;fillColor=none;points=[[0,0.5],[1,0.5]];portConstraint=eastwest;fontFamily=Helvetica;fontSize=11;fontColor=default;" vertex="1" parent="9nsqkVknTLM4fVqb4sCg-622">
          <mxGeometry width="20" height="20" as="geometry" />
        </mxCell>
        <mxCell id="9nsqkVknTLM4fVqb4sCg-624" value="" style="shape=partialRectangle;html=1;whiteSpace=wrap;connectable=0;strokeColor=inherit;overflow=hidden;fillColor=#4D4D4D;top=0;left=0;bottom=0;right=0;pointerEvents=1;fontFamily=Helvetica;fontSize=11;fontColor=default;" vertex="1" parent="9nsqkVknTLM4fVqb4sCg-623">
          <mxGeometry width="20" height="20" as="geometry">
            <mxRectangle width="20" height="20" as="alternateBounds" />
          </mxGeometry>
        </mxCell>
        <mxCell id="9nsqkVknTLM4fVqb4sCg-625" value="" style="shape=tableRow;horizontal=0;startSize=0;swimlaneHead=0;swimlaneBody=0;strokeColor=inherit;top=0;left=0;bottom=0;right=0;collapsible=0;dropTarget=0;fillColor=none;points=[[0,0.5],[1,0.5]];portConstraint=eastwest;fontFamily=Helvetica;fontSize=11;fontColor=default;" vertex="1" parent="9nsqkVknTLM4fVqb4sCg-622">
          <mxGeometry y="20" width="20" height="20" as="geometry" />
        </mxCell>
        <mxCell id="9nsqkVknTLM4fVqb4sCg-626" value="" style="shape=partialRectangle;html=1;whiteSpace=wrap;connectable=0;strokeColor=inherit;overflow=hidden;fillColor=#666666;top=0;left=0;bottom=0;right=0;pointerEvents=1;fontFamily=Helvetica;fontSize=11;fontColor=default;" vertex="1" parent="9nsqkVknTLM4fVqb4sCg-625">
          <mxGeometry width="20" height="20" as="geometry">
            <mxRectangle width="20" height="20" as="alternateBounds" />
          </mxGeometry>
        </mxCell>
        <mxCell id="9nsqkVknTLM4fVqb4sCg-627" value="" style="shape=tableRow;horizontal=0;startSize=0;swimlaneHead=0;swimlaneBody=0;strokeColor=inherit;top=0;left=0;bottom=0;right=0;collapsible=0;dropTarget=0;fillColor=none;points=[[0,0.5],[1,0.5]];portConstraint=eastwest;fontFamily=Helvetica;fontSize=11;fontColor=default;" vertex="1" parent="9nsqkVknTLM4fVqb4sCg-622">
          <mxGeometry y="40" width="20" height="20" as="geometry" />
        </mxCell>
        <mxCell id="9nsqkVknTLM4fVqb4sCg-628" value="" style="shape=partialRectangle;html=1;whiteSpace=wrap;connectable=0;strokeColor=inherit;overflow=hidden;fillColor=#808080;top=0;left=0;bottom=0;right=0;pointerEvents=1;fontFamily=Helvetica;fontSize=11;fontColor=default;" vertex="1" parent="9nsqkVknTLM4fVqb4sCg-627">
          <mxGeometry width="20" height="20" as="geometry">
            <mxRectangle width="20" height="20" as="alternateBounds" />
          </mxGeometry>
        </mxCell>
        <mxCell id="9nsqkVknTLM4fVqb4sCg-629" value="" style="shape=tableRow;horizontal=0;startSize=0;swimlaneHead=0;swimlaneBody=0;strokeColor=inherit;top=0;left=0;bottom=0;right=0;collapsible=0;dropTarget=0;fillColor=none;points=[[0,0.5],[1,0.5]];portConstraint=eastwest;fontFamily=Helvetica;fontSize=11;fontColor=default;" vertex="1" parent="9nsqkVknTLM4fVqb4sCg-622">
          <mxGeometry y="60" width="20" height="20" as="geometry" />
        </mxCell>
        <mxCell id="9nsqkVknTLM4fVqb4sCg-630" value="" style="shape=partialRectangle;html=1;whiteSpace=wrap;connectable=0;strokeColor=inherit;overflow=hidden;fillColor=#CCCCCC;top=0;left=0;bottom=0;right=0;pointerEvents=1;fontFamily=Helvetica;fontSize=11;fontColor=default;" vertex="1" parent="9nsqkVknTLM4fVqb4sCg-629">
          <mxGeometry width="20" height="20" as="geometry">
            <mxRectangle width="20" height="20" as="alternateBounds" />
          </mxGeometry>
        </mxCell>
        <mxCell id="9nsqkVknTLM4fVqb4sCg-631" value="" style="shape=tableRow;horizontal=0;startSize=0;swimlaneHead=0;swimlaneBody=0;strokeColor=inherit;top=0;left=0;bottom=0;right=0;collapsible=0;dropTarget=0;fillColor=none;points=[[0,0.5],[1,0.5]];portConstraint=eastwest;fontFamily=Helvetica;fontSize=11;fontColor=default;" vertex="1" parent="9nsqkVknTLM4fVqb4sCg-622">
          <mxGeometry y="80" width="20" height="20" as="geometry" />
        </mxCell>
        <mxCell id="9nsqkVknTLM4fVqb4sCg-632" value="" style="shape=partialRectangle;html=1;whiteSpace=wrap;connectable=0;strokeColor=inherit;overflow=hidden;fillColor=#E6E6E6;top=0;left=0;bottom=0;right=0;pointerEvents=1;fontFamily=Helvetica;fontSize=11;fontColor=default;" vertex="1" parent="9nsqkVknTLM4fVqb4sCg-631">
          <mxGeometry width="20" height="20" as="geometry">
            <mxRectangle width="20" height="20" as="alternateBounds" />
          </mxGeometry>
        </mxCell>
        <mxCell id="9nsqkVknTLM4fVqb4sCg-633" value="" style="shape=table;startSize=0;container=1;collapsible=0;childLayout=tableLayout;fontFamily=Helvetica;fontSize=11;fontColor=default;fillColor=#FFFFFF;" vertex="1" parent="1">
          <mxGeometry x="600.5" y="51.129999999999995" width="20" height="20" as="geometry" />
        </mxCell>
        <mxCell id="9nsqkVknTLM4fVqb4sCg-634" value="" style="shape=tableRow;horizontal=0;startSize=0;swimlaneHead=0;swimlaneBody=0;strokeColor=inherit;top=0;left=0;bottom=0;right=0;collapsible=0;dropTarget=0;fillColor=none;points=[[0,0.5],[1,0.5]];portConstraint=eastwest;fontFamily=Helvetica;fontSize=11;fontColor=default;" vertex="1" parent="9nsqkVknTLM4fVqb4sCg-633">
          <mxGeometry width="20" height="20" as="geometry" />
        </mxCell>
        <mxCell id="9nsqkVknTLM4fVqb4sCg-635" value="" style="shape=partialRectangle;html=1;whiteSpace=wrap;connectable=0;strokeColor=inherit;overflow=hidden;fillColor=#E6E6E6;top=0;left=0;bottom=0;right=0;pointerEvents=1;fontFamily=Helvetica;fontSize=11;fontColor=default;" vertex="1" parent="9nsqkVknTLM4fVqb4sCg-634">
          <mxGeometry width="20" height="20" as="geometry">
            <mxRectangle width="20" height="20" as="alternateBounds" />
          </mxGeometry>
        </mxCell>
        <mxCell id="9nsqkVknTLM4fVqb4sCg-645" value="" style="shape=table;startSize=0;container=1;collapsible=0;childLayout=tableLayout;fontFamily=Helvetica;fontSize=11;fontColor=default;fillColor=#FFFFFF;flipV=1;flipH=1;direction=north;" vertex="1" parent="1">
          <mxGeometry x="683.5" y="49.629999999999995" width="20" height="100" as="geometry" />
        </mxCell>
        <mxCell id="9nsqkVknTLM4fVqb4sCg-646" value="" style="shape=tableRow;horizontal=0;startSize=0;swimlaneHead=0;swimlaneBody=0;strokeColor=inherit;top=0;left=0;bottom=0;right=0;collapsible=0;dropTarget=0;fillColor=none;points=[[0,0.5],[1,0.5]];portConstraint=eastwest;fontFamily=Helvetica;fontSize=11;fontColor=default;" vertex="1" parent="9nsqkVknTLM4fVqb4sCg-645">
          <mxGeometry width="20" height="20" as="geometry" />
        </mxCell>
        <mxCell id="9nsqkVknTLM4fVqb4sCg-647" value="" style="shape=partialRectangle;html=1;whiteSpace=wrap;connectable=0;strokeColor=inherit;overflow=hidden;fillColor=#4D4D4D;top=0;left=0;bottom=0;right=0;pointerEvents=1;fontFamily=Helvetica;fontSize=11;fontColor=default;" vertex="1" parent="9nsqkVknTLM4fVqb4sCg-646">
          <mxGeometry width="20" height="20" as="geometry">
            <mxRectangle width="20" height="20" as="alternateBounds" />
          </mxGeometry>
        </mxCell>
        <mxCell id="9nsqkVknTLM4fVqb4sCg-648" value="" style="shape=tableRow;horizontal=0;startSize=0;swimlaneHead=0;swimlaneBody=0;strokeColor=inherit;top=0;left=0;bottom=0;right=0;collapsible=0;dropTarget=0;fillColor=none;points=[[0,0.5],[1,0.5]];portConstraint=eastwest;fontFamily=Helvetica;fontSize=11;fontColor=default;" vertex="1" parent="9nsqkVknTLM4fVqb4sCg-645">
          <mxGeometry y="20" width="20" height="20" as="geometry" />
        </mxCell>
        <mxCell id="9nsqkVknTLM4fVqb4sCg-649" value="" style="shape=partialRectangle;html=1;whiteSpace=wrap;connectable=0;strokeColor=inherit;overflow=hidden;fillColor=#666666;top=0;left=0;bottom=0;right=0;pointerEvents=1;fontFamily=Helvetica;fontSize=11;fontColor=default;" vertex="1" parent="9nsqkVknTLM4fVqb4sCg-648">
          <mxGeometry width="20" height="20" as="geometry">
            <mxRectangle width="20" height="20" as="alternateBounds" />
          </mxGeometry>
        </mxCell>
        <mxCell id="9nsqkVknTLM4fVqb4sCg-650" value="" style="shape=tableRow;horizontal=0;startSize=0;swimlaneHead=0;swimlaneBody=0;strokeColor=inherit;top=0;left=0;bottom=0;right=0;collapsible=0;dropTarget=0;fillColor=none;points=[[0,0.5],[1,0.5]];portConstraint=eastwest;fontFamily=Helvetica;fontSize=11;fontColor=default;" vertex="1" parent="9nsqkVknTLM4fVqb4sCg-645">
          <mxGeometry y="40" width="20" height="20" as="geometry" />
        </mxCell>
        <mxCell id="9nsqkVknTLM4fVqb4sCg-651" value="" style="shape=partialRectangle;html=1;whiteSpace=wrap;connectable=0;strokeColor=inherit;overflow=hidden;fillColor=#808080;top=0;left=0;bottom=0;right=0;pointerEvents=1;fontFamily=Helvetica;fontSize=11;fontColor=default;" vertex="1" parent="9nsqkVknTLM4fVqb4sCg-650">
          <mxGeometry width="20" height="20" as="geometry">
            <mxRectangle width="20" height="20" as="alternateBounds" />
          </mxGeometry>
        </mxCell>
        <mxCell id="9nsqkVknTLM4fVqb4sCg-652" value="" style="shape=tableRow;horizontal=0;startSize=0;swimlaneHead=0;swimlaneBody=0;strokeColor=inherit;top=0;left=0;bottom=0;right=0;collapsible=0;dropTarget=0;fillColor=none;points=[[0,0.5],[1,0.5]];portConstraint=eastwest;fontFamily=Helvetica;fontSize=11;fontColor=default;" vertex="1" parent="9nsqkVknTLM4fVqb4sCg-645">
          <mxGeometry y="60" width="20" height="20" as="geometry" />
        </mxCell>
        <mxCell id="9nsqkVknTLM4fVqb4sCg-653" value="" style="shape=partialRectangle;html=1;whiteSpace=wrap;connectable=0;strokeColor=inherit;overflow=hidden;fillColor=#CCCCCC;top=0;left=0;bottom=0;right=0;pointerEvents=1;fontFamily=Helvetica;fontSize=11;fontColor=default;" vertex="1" parent="9nsqkVknTLM4fVqb4sCg-652">
          <mxGeometry width="20" height="20" as="geometry">
            <mxRectangle width="20" height="20" as="alternateBounds" />
          </mxGeometry>
        </mxCell>
        <mxCell id="9nsqkVknTLM4fVqb4sCg-654" value="" style="shape=tableRow;horizontal=0;startSize=0;swimlaneHead=0;swimlaneBody=0;strokeColor=inherit;top=0;left=0;bottom=0;right=0;collapsible=0;dropTarget=0;fillColor=none;points=[[0,0.5],[1,0.5]];portConstraint=eastwest;fontFamily=Helvetica;fontSize=11;fontColor=default;" vertex="1" parent="9nsqkVknTLM4fVqb4sCg-645">
          <mxGeometry y="80" width="20" height="20" as="geometry" />
        </mxCell>
        <mxCell id="9nsqkVknTLM4fVqb4sCg-655" value="" style="shape=partialRectangle;html=1;whiteSpace=wrap;connectable=0;strokeColor=inherit;overflow=hidden;fillColor=#E6E6E6;top=0;left=0;bottom=0;right=0;pointerEvents=1;fontFamily=Helvetica;fontSize=11;fontColor=default;" vertex="1" parent="9nsqkVknTLM4fVqb4sCg-654">
          <mxGeometry width="20" height="20" as="geometry">
            <mxRectangle width="20" height="20" as="alternateBounds" />
          </mxGeometry>
        </mxCell>
        <mxCell id="9nsqkVknTLM4fVqb4sCg-738" value="" style="rounded=0;whiteSpace=wrap;html=1;fontFamily=Helvetica;fontSize=11;fontColor=default;" vertex="1" parent="1">
          <mxGeometry x="426" y="34.04" width="28" height="131.18" as="geometry" />
        </mxCell>
      </root>
    </mxGraphModel>
  </diagram>
</mxfile>
